PathFileType	4	(X/Y/Z)	C:/Users/dbak576/Desktop/Duncan Bakke Modelling Files/H27s1/Static_H27s1.trc	
DataRate	CameraRate	NumFrames	NumMarkers	Units	OrigDataRate	OrigDataStartFrame	OrigNumFrames	
200.00	200.00	4	61	mm	200.00	1519	70	
Frame#	Time	LFHD			RFHD			LBHD			RBHD			C7			T10			CLAV			STRN			RBack			LASI			RASI			LPSI			RPSI			RACR1			RUA1			RElbow			RElbowM			RFA1			RWRR			RWRU			RCAR			LACR1			LUA1			LElbow			LElbowM			LFA1			LWRR			LWRU			LCAR			RTH1			RTH3			RTH2			RTH4			RLFC			RMFC			RTB1			RTB3			RTB2			RTB4			RLMAL			RMMAL			RCAL			RMT1			RMT5			RToe			LTH1			LTH3			LTH2			LTH4			LLFC			LMFC			LTB1			LTB3			LTB2			LTB4			LLMAL			LMMAL			LCAL			LMT1			LMT5			LToe			
		X1	Y1	Z1	X2	Y2	Z2	X3	Y3	Z3	X4	Y4	Z4	X5	Y5	Z5	X6	Y6	Z6	X7	Y7	Z7	X8	Y8	Z8	X9	Y9	Z9	X10	Y10	Z10	X11	Y11	Z11	X12	Y12	Z12	X13	Y13	Z13	X14	Y14	Z14	X15	Y15	Z15	X16	Y16	Z16	X17	Y17	Z17	X18	Y18	Z18	X19	Y19	Z19	X20	Y20	Z20	X21	Y21	Z21	X22	Y22	Z22	X23	Y23	Z23	X24	Y24	Z24	X25	Y25	Z25	X26	Y26	Z26	X27	Y27	Z27	X28	Y28	Z28	X29	Y29	Z29	X30	Y30	Z30	X31	Y31	Z31	X32	Y32	Z32	X33	Y33	Z33	X34	Y34	Z34	X35	Y35	Z35	X36	Y36	Z36	X37	Y37	Z37	X38	Y38	Z38	X39	Y39	Z39	X40	Y40	Z40	X41	Y41	Z41	X42	Y42	Z42	X43	Y43	Z43	X44	Y44	Z44	X45	Y45	Z45	X46	Y46	Z46	X47	Y47	Z47	X48	Y48	Z48	X49	Y49	Z49	X50	Y50	Z50	X51	Y51	Z51	X52	Y52	Z52	X53	Y53	Z53	X54	Y54	Z54	X55	Y55	Z55	X56	Y56	Z56	X57	Y57	Z57	X58	Y58	Z58	X59	Y59	Z59	X60	Y60	Z60	X61	Y61	Z61	

53	0.260	-51.02710	-365.66107	1605.64282	43.28611	-365.30350	1600.86755	-82.68668	-520.23010	1560.56958	61.44077	-519.13110	1561.53528	-13.61090	-558.88147	1420.43372	-22.77407	-577.99518	1141.83337	-14.69772	-411.34851	1366.05762	-10.97324	-344.67154	1279.05249	89.02966	-595.09265	1314.32874	-146.68925	-308.31418	968.88666	140.10770	-331.62805	986.55377	-67.05556	-556.51978	976.57269	21.55976	-562.92645	979.24854	107.51861	-506.45511	1417.56555	279.89240	-521.58234	1391.71411	398.26761	-537.87598	1335.39575	396.68127	-458.67050	1284.04993	534.19489	-533.55902	1308.82288	648.90594	-505.03043	1378.64795	653.86292	-488.38251	1310.25000	705.68768	-538.78284	1344.80750	-140.16182	-508.33585	1417.08533	-308.49933	-512.77521	1397.70605	-433.73688	-508.14896	1359.03101	-432.15018	-454.92038	1310.39099	-563.21942	-498.78058	1347.39526	-676.82855	-470.20612	1420.63672	-679.53241	-448.56085	1356.97400	-734.62042	-490.43741	1392.80261	221.57213	-412.55392	756.22015	196.02255	-444.52844	588.75073	185.87271	-375.39865	665.64368	206.61737	-430.11008	671.40997	181.13625	-464.58536	504.32272	34.07485	-457.24219	481.40079	135.97459	-426.32336	344.45139	159.25934	-442.24033	174.86819	202.66003	-460.47641	269.17657	148.15909	-437.36771	255.86429	197.36780	-489.69250	65.87336	116.40259	-464.65396	61.83257	160.92409	-542.60242	25.31686	153.08691	-364.90033	33.28957	231.04443	-403.67383	28.03006	189.77551	-298.12869	27.40637	-244.66762	-410.19000	765.48450	-198.26923	-446.08432	605.15948	-199.41896	-372.83505	681.24060	-216.26639	-428.81241	686.94250	-177.38469	-469.42731	485.67780	-28.11302	-481.83658	474.80832	-118.51534	-433.33438	340.03622	-138.98915	-450.75400	169.41222	-184.27721	-465.65378	261.34534	-127.34312	-442.94690	253.99452	-172.44830	-496.38443	62.34024	-89.45617	-473.30197	56.79426	-133.16965	-553.94336	28.88758	-123.50268	-372.45117	27.55715	-199.00551	-410.93414	25.05844	-160.56601	-305.99561	22.81396 
54	0.265	-51.04031	-365.64352	1605.61084	43.23914	-365.26263	1600.83020	-82.70354	-520.19733	1560.55786	61.46757	-519.06421	1561.64087	-13.62922	-558.89264	1420.42944	-22.77020	-578.01599	1141.79993	-14.77425	-411.39514	1366.08313	-10.98700	-344.70316	1279.06567	89.02380	-595.09540	1314.33716	-146.67723	-308.30109	968.86261	140.12869	-331.67068	986.53632	-67.06244	-556.53522	976.55035	21.32790	-563.20618	979.37115	107.51612	-506.47446	1417.58142	279.92258	-521.58020	1391.72620	398.24973	-537.87836	1335.42334	396.67142	-458.44730	1283.91919	534.18945	-533.55859	1308.84631	648.88263	-505.03925	1378.71216	653.99084	-488.39420	1310.21265	705.69360	-538.75488	1344.83118	-140.24071	-508.37521	1417.10596	-308.46118	-512.76520	1397.68005	-433.72369	-508.15463	1359.00403	-432.15485	-455.07425	1310.41992	-563.17181	-498.79352	1347.57532	-676.83020	-470.24118	1420.64429	-679.34601	-448.22681	1356.93994	-734.57263	-490.27237	1392.75830	221.60150	-412.59689	756.24829	196.03146	-444.54297	588.74744	185.84898	-375.43710	665.67126	206.62105	-430.13092	671.42566	181.14282	-464.57404	504.32208	34.13085	-457.00665	481.27429	135.99992	-426.37723	344.45187	159.24342	-442.26566	174.87425	202.66142	-460.46835	269.20773	147.66672	-437.26733	256.54074	197.34801	-489.60645	65.75469	116.38503	-464.67590	61.81962	161.02739	-542.84875	25.31048	153.12744	-364.87088	33.40435	230.70622	-403.64380	27.76439	189.76999	-298.14255	27.40966	-244.66110	-410.17307	765.48065	-198.24806	-446.09387	605.15912	-199.41064	-372.84824	681.24585	-216.31395	-428.74667	686.98376	-177.35350	-469.43521	485.66794	-27.67593	-481.96573	474.60950	-118.50746	-433.34708	340.04956	-138.99960	-450.75879	169.42113	-184.29785	-465.63757	261.32928	-127.31849	-442.95096	253.97408	-172.40300	-496.33688	62.24422	-89.41486	-473.36533	56.78139	-133.26579	-553.89923	28.82310	-123.52209	-372.44803	27.56718	-198.98981	-410.93079	25.06604	-160.59669	-305.95044	22.75831 
55	0.270	-51.01313	-365.58731	1605.55310	43.17650	-365.20700	1600.76379	-82.70137	-520.20471	1560.54053	61.32123	-519.18097	1561.80627	-13.64519	-558.90088	1420.42542	-22.76650	-577.99585	1141.81323	-14.85596	-411.44305	1366.10303	-11.00216	-344.73840	1279.08386	89.01262	-595.10187	1314.35596	-146.67892	-308.27417	968.83868	140.14752	-331.71597	986.51624	-67.05802	-556.53259	976.53888	21.09506	-563.53442	979.48480	107.52148	-506.48868	1417.59363	279.95392	-521.56604	1391.70142	398.23557	-537.88153	1335.45776	396.65295	-458.24576	1283.85388	534.17914	-533.57867	1308.88293	648.85474	-505.05280	1378.79028	654.13843	-488.31183	1310.16992	705.70050	-538.74390	1344.87634	-140.27165	-508.36786	1417.15784	-308.45465	-512.77557	1397.66943	-433.71558	-508.16595	1358.98120	-432.16333	-455.21442	1310.45361	-563.10187	-498.82013	1347.72156	-676.80591	-470.27405	1420.63757	-679.23926	-448.19437	1356.47314	-734.40784	-490.17542	1392.70325	221.61703	-412.64618	756.26874	196.03099	-444.55954	588.74518	185.85449	-375.48441	665.66974	206.62175	-430.15549	671.44147	181.14047	-464.58496	504.31277	34.14719	-456.81122	481.25146	136.02588	-426.42740	344.45706	159.23332	-442.29526	174.88048	202.66628	-460.47162	269.22818	147.23169	-437.14380	257.01260	197.35980	-489.51035	65.77729	116.36564	-464.70401	61.80725	160.97781	-542.88416	25.36092	153.16359	-364.82224	33.49335	230.56085	-403.61026	27.72223	189.76590	-298.17001	27.43066	-244.64085	-410.17657	765.48309	-198.22173	-446.09848	605.16638	-199.38905	-372.86975	681.25861	-216.38370	-428.67551	687.03339	-177.33675	-469.45297	485.65292	-27.29015	-482.05927	474.38010	-118.50475	-433.35919	340.04599	-138.99898	-450.76611	169.42499	-184.31766	-465.61969	261.31757	-127.29677	-442.97211	253.99040	-172.36906	-496.29440	62.23504	-89.56626	-473.39352	56.79617	-132.98232	-553.95117	28.85312	-123.53625	-372.44144	27.57295	-198.98245	-410.93021	25.09072	-160.60551	-305.90775	22.72789 
56	0.275	-51.00314	-365.58362	1605.55676	43.09982	-365.16071	1600.71216	-82.68277	-520.22864	1560.51038	61.33520	-519.11670	1561.85486	-13.65461	-558.90436	1420.42236	-22.76487	-578.00708	1141.79700	-14.93840	-411.48224	1366.11707	-11.01743	-344.76743	1279.08972	89.00558	-595.10870	1314.36072	-146.69058	-308.24667	968.81989	140.16106	-331.75809	986.50085	-67.04556	-556.51825	976.53955	20.86199	-563.84204	979.58276	107.52725	-506.50226	1417.60754	279.97742	-521.55084	1391.66748	398.22153	-537.88641	1335.50659	396.61990	-458.08231	1283.85034	534.16693	-533.61420	1308.92419	648.81335	-505.08780	1378.86316	654.30341	-488.12714	1310.11401	705.69086	-538.75513	1344.93127	-140.22247	-508.31430	1417.12708	-308.47302	-512.79553	1397.67188	-433.71631	-508.18414	1358.96875	-432.18707	-455.32928	1310.47888	-563.04431	-498.85635	1347.79163	-676.77515	-470.30753	1420.62720	-679.44208	-448.53162	1355.61597	-734.19623	-490.11908	1392.62036	221.62672	-412.70532	756.28186	196.01903	-444.58331	588.74536	185.88292	-375.54248	665.64490	206.62021	-430.18338	671.45874	181.13847	-464.62094	504.31039	34.13143	-456.65775	481.30698	136.05270	-426.47693	344.46265	159.23077	-442.32156	174.88606	202.67096	-460.47244	269.25076	146.69781	-436.97235	257.57324	197.39290	-489.47314	65.94708	116.35324	-464.72775	61.80274	160.83929	-542.73938	25.44856	153.14789	-364.84564	33.49470	230.61397	-403.59189	27.85516	189.76701	-298.18106	27.43669	-244.64507	-410.17181	765.48633	-198.20599	-446.08179	605.16516	-199.36691	-372.88242	681.26227	-216.45618	-428.62283	687.07806	-177.33658	-469.45819	485.65451	-26.83873	-482.17630	474.32986	-118.50787	-433.38394	340.04440	-139.00050	-450.76874	169.43462	-184.33202	-465.60172	261.31430	-127.28409	-442.99927	254.02556	-172.35020	-496.27252	62.27496	-89.68848	-473.42834	56.80747	-132.74472	-553.96259	28.85982	-123.53103	-372.43274	27.57025	-198.99246	-410.94711	25.12349	-160.55243	-305.82031	22.73481 
